<svg width="26" height="16" viewBox="0 0 26 16" fill="none" xmlns="http://www.w3.org/2000/svg">
<path d="M26 1.33333C26 0.596954 25.403 0 24.6667 0H1.33333C0.596954 0 0 0.596954 0 1.33333C0 2.06971 0.596954 2.66667 1.33333 2.66667H24.6667C25.403 2.66667 26 2.06971 26 1.33333ZM19.5 8C19.5 7.26362 18.903 6.66667 18.1667 6.66667H1.33333C0.596954 6.66667 0 7.26362 0 8C0 8.73638 0.596954 9.33333 1.33333 9.33333H18.1667C18.903 9.33333 19.5 8.73638 19.5 8ZM11.375 14.6667C11.375 13.9303 10.778 13.3333 10.0417 13.3333H1.33333C0.596954 13.3333 0 13.9303 0 14.6667C0 15.403 0.596954 16 1.33333 16H10.0417C10.778 16 11.375 15.403 11.375 14.6667Z" fill="black"/>
</svg>
